<?xml version="1.0" encoding="utf-8" standalone="no"?>
<!DOCTYPE svg PUBLIC "-//W3C//DTD SVG 1.1//EN"
  "http://www.w3.org/Graphics/SVG/1.1/DTD/svg11.dtd">
<svg xmlns:xlink="http://www.w3.org/1999/xlink" width="331pt" height="35pt" viewBox="0 0 331 35" xmlns="http://www.w3.org/2000/svg" version="1.1">
 <metadata>
  <rdf:RDF xmlns:dc="http://purl.org/dc/elements/1.1/" xmlns:cc="http://creativecommons.org/ns#" xmlns:rdf="http://www.w3.org/1999/02/22-rdf-syntax-ns#">
   <cc:Work>
    <dc:type rdf:resource="http://purl.org/dc/dcmitype/StillImage"/>
    <dc:date>2026-05-25T19:04:53.962184</dc:date>
    <dc:format>image/svg+xml</dc:format>
    <dc:creator>
     <cc:Agent>
      <dc:title>Matplotlib v3.10.8, https://matplotlib.org/</dc:title>
     </cc:Agent>
    </dc:creator>
   </cc:Work>
  </rdf:RDF>
 </metadata>
 <defs>
  <style type="text/css">*{stroke-linejoin: round; stroke-linecap: butt}</style>
 </defs>
 <g id="figure_1">
  <g id="patch_1">
   <path d="M 0 35 
L 331 35 
L 331 0 
L 0 0 
z
" style="fill: #ffffff"/>
  </g>
  <g id="text_1">
   <!-- $\mathcal{L} = \lambda_g \mathcal{L}_{\mathrm{global}} + \lambda_e \mathcal{L}_{\mathrm{expl}}$ -->
   <g style="fill: #2c1810" transform="translate(0 25) scale(0.32 -0.32)">
    <defs>
     <path id="STIXNonUnicode-Italic-e238" d="M 4070 915 
L 4179 800 
Q 3347 -45 2413 -45 
Q 2157 -45 1850 26 
Q 1395 122 1146 122 
Q 1005 122 672 61 
Q 339 0 192 0 
L 230 154 
Q 582 154 730 749 
L 1178 2566 
Q 1286 3008 1516 3353 
Q 1747 3699 2025 3894 
Q 2304 4090 2585 4189 
Q 2867 4288 3123 4288 
Q 3443 4288 3593 4083 
Q 3744 3878 3744 3584 
Q 3744 3347 3593 3200 
Q 3443 3053 3226 3053 
Q 3085 3053 2995 3149 
Q 2906 3245 2906 3379 
Q 2906 3482 2957 3552 
Q 3008 3622 3065 3644 
Q 3123 3667 3174 3705 
Q 3226 3744 3226 3789 
Q 3226 4032 2854 4032 
Q 2522 4032 2310 3785 
Q 2099 3539 1990 3132 
Q 1882 2726 1795 2284 
Q 1709 1843 1549 1363 
Q 1389 883 1158 589 
L 1158 563 
Q 1363 704 1888 704 
Q 2227 704 2460 544 
Q 2694 384 2963 384 
Q 3507 384 4070 915 
z
" transform="scale(0.015625)"/>
     <path id="DejaVuSans-3d" d="M 678 2906 
L 4684 2906 
L 4684 2381 
L 678 2381 
L 678 2906 
z
M 678 1631 
L 4684 1631 
L 4684 1100 
L 678 1100 
L 678 1631 
z
" transform="scale(0.015625)"/>
     <path id="DejaVuSans-Oblique-3bb" d="M 2350 4316 
L 3125 0 
L 2516 0 
L 2038 2588 
L 328 0 
L -281 0 
L 1903 3356 
L 1794 3975 
Q 1725 4369 1391 4369 
L 1091 4369 
L 1184 4863 
L 1550 4856 
Q 2253 4847 2350 4316 
z
" transform="scale(0.015625)"/>
     <path id="DejaVuSans-Oblique-67" d="M 3816 3500 
L 3219 434 
Q 3047 -456 2561 -893 
Q 2075 -1331 1253 -1331 
Q 950 -1331 690 -1286 
Q 431 -1241 206 -1147 
L 313 -588 
Q 525 -725 762 -790 
Q 1000 -856 1269 -856 
Q 1816 -856 2167 -557 
Q 2519 -259 2631 300 
L 2681 563 
Q 2441 288 2122 144 
Q 1803 0 1434 0 
Q 903 0 598 351 
Q 294 703 294 1319 
Q 294 1803 478 2267 
Q 663 2731 997 3091 
Q 1219 3328 1514 3456 
Q 1809 3584 2131 3584 
Q 2484 3584 2746 3420 
Q 3009 3256 3138 2956 
L 3238 3500 
L 3816 3500 
z
M 2950 2216 
Q 2950 2641 2750 2872 
Q 2550 3103 2181 3103 
Q 1953 3103 1747 3012 
Q 1541 2922 1394 2759 
Q 1156 2491 1023 2127 
Q 891 1763 891 1375 
Q 891 944 1092 712 
Q 1294 481 1672 481 
Q 2219 481 2584 976 
Q 2950 1472 2950 2216 
z
" transform="scale(0.015625)"/>
     <path id="DejaVuSans-67" d="M 2906 1791 
Q 2906 2416 2648 2759 
Q 2391 3103 1925 3103 
Q 1463 3103 1205 2759 
Q 947 2416 947 1791 
Q 947 1169 1205 825 
Q 1463 481 1925 481 
Q 2391 481 2648 825 
Q 2906 1169 2906 1791 
z
M 3481 434 
Q 3481 -459 3084 -895 
Q 2688 -1331 1869 -1331 
Q 1566 -1331 1297 -1286 
Q 1028 -1241 775 -1147 
L 775 -588 
Q 1028 -725 1275 -790 
Q 1522 -856 1778 -856 
Q 2344 -856 2625 -561 
Q 2906 -266 2906 331 
L 2906 616 
Q 2728 306 2450 153 
Q 2172 0 1784 0 
Q 1141 0 747 490 
Q 353 981 353 1791 
Q 353 2603 747 3093 
Q 1141 3584 1784 3584 
Q 2172 3584 2450 3431 
Q 2728 3278 2906 2969 
L 2906 3500 
L 3481 3500 
L 3481 434 
z
" transform="scale(0.015625)"/>
     <path id="DejaVuSans-6c" d="M 603 4863 
L 1178 4863 
L 1178 0 
L 603 0 
L 603 4863 
z
" transform="scale(0.015625)"/>
     <path id="DejaVuSans-6f" d="M 1959 3097 
Q 1497 3097 1228 2736 
Q 959 2375 959 1747 
Q 959 1119 1226 758 
Q 1494 397 1959 397 
Q 2419 397 2687 759 
Q 2956 1122 2956 1747 
Q 2956 2369 2687 2733 
Q 2419 3097 1959 3097 
z
M 1959 3584 
Q 2709 3584 3137 3096 
Q 3566 2609 3566 1747 
Q 3566 888 3137 398 
Q 2709 -91 1959 -91 
Q 1206 -91 779 398 
Q 353 888 353 1747 
Q 353 2609 779 3096 
Q 1206 3584 1959 3584 
z
" transform="scale(0.015625)"/>
     <path id="DejaVuSans-62" d="M 3116 1747 
Q 3116 2381 2855 2742 
Q 2594 3103 2138 3103 
Q 1681 3103 1420 2742 
Q 1159 2381 1159 1747 
Q 1159 1113 1420 752 
Q 1681 391 2138 391 
Q 2594 391 2855 752 
Q 3116 1113 3116 1747 
z
M 1159 2969 
Q 1341 3281 1617 3432 
Q 1894 3584 2278 3584 
Q 2916 3584 3314 3078 
Q 3713 2572 3713 1747 
Q 3713 922 3314 415 
Q 2916 -91 2278 -91 
Q 1894 -91 1617 61 
Q 1341 213 1159 525 
L 1159 0 
L 581 0 
L 581 4863 
L 1159 4863 
L 1159 2969 
z
" transform="scale(0.015625)"/>
     <path id="DejaVuSans-61" d="M 2194 1759 
Q 1497 1759 1228 1600 
Q 959 1441 959 1056 
Q 959 750 1161 570 
Q 1363 391 1709 391 
Q 2188 391 2477 730 
Q 2766 1069 2766 1631 
L 2766 1759 
L 2194 1759 
z
M 3341 1997 
L 3341 0 
L 2766 0 
L 2766 531 
Q 2569 213 2275 61 
Q 1981 -91 1556 -91 
Q 1019 -91 701 211 
Q 384 513 384 1019 
Q 384 1609 779 1909 
Q 1175 2209 1959 2209 
L 2766 2209 
L 2766 2266 
Q 2766 2663 2505 2880 
Q 2244 3097 1772 3097 
Q 1472 3097 1187 3025 
Q 903 2953 641 2809 
L 641 3341 
Q 956 3463 1253 3523 
Q 1550 3584 1831 3584 
Q 2591 3584 2966 3190 
Q 3341 2797 3341 1997 
z
" transform="scale(0.015625)"/>
     <path id="DejaVuSans-2b" d="M 2944 4013 
L 2944 2272 
L 4684 2272 
L 4684 1741 
L 2944 1741 
L 2944 0 
L 2419 0 
L 2419 1741 
L 678 1741 
L 678 2272 
L 2419 2272 
L 2419 4013 
L 2944 4013 
z
" transform="scale(0.015625)"/>
     <path id="DejaVuSans-Oblique-65" d="M 3078 2063 
Q 3088 2113 3092 2166 
Q 3097 2219 3097 2272 
Q 3097 2653 2873 2875 
Q 2650 3097 2266 3097 
Q 1838 3097 1509 2826 
Q 1181 2556 1013 2059 
L 3078 2063 
z
M 3578 1613 
L 903 1613 
Q 884 1494 878 1425 
Q 872 1356 872 1306 
Q 872 872 1139 634 
Q 1406 397 1894 397 
Q 2269 397 2603 481 
Q 2938 566 3225 728 
L 3116 159 
Q 2806 34 2476 -28 
Q 2147 -91 1806 -91 
Q 1078 -91 686 257 
Q 294 606 294 1247 
Q 294 1794 489 2264 
Q 684 2734 1063 3103 
Q 1306 3334 1642 3459 
Q 1978 3584 2356 3584 
Q 2950 3584 3301 3228 
Q 3653 2872 3653 2272 
Q 3653 2128 3634 1964 
Q 3616 1800 3578 1613 
z
" transform="scale(0.015625)"/>
     <path id="DejaVuSans-65" d="M 3597 1894 
L 3597 1613 
L 953 1613 
Q 991 1019 1311 708 
Q 1631 397 2203 397 
Q 2534 397 2845 478 
Q 3156 559 3463 722 
L 3463 178 
Q 3153 47 2828 -22 
Q 2503 -91 2169 -91 
Q 1331 -91 842 396 
Q 353 884 353 1716 
Q 353 2575 817 3079 
Q 1281 3584 2069 3584 
Q 2775 3584 3186 3129 
Q 3597 2675 3597 1894 
z
M 3022 2063 
Q 3016 2534 2758 2815 
Q 2500 3097 2075 3097 
Q 1594 3097 1305 2825 
Q 1016 2553 972 2059 
L 3022 2063 
z
" transform="scale(0.015625)"/>
     <path id="DejaVuSans-78" d="M 3513 3500 
L 2247 1797 
L 3578 0 
L 2900 0 
L 1881 1375 
L 863 0 
L 184 0 
L 1544 1831 
L 300 3500 
L 978 3500 
L 1906 2253 
L 2834 3500 
L 3513 3500 
z
" transform="scale(0.015625)"/>
     <path id="DejaVuSans-70" d="M 1159 525 
L 1159 -1331 
L 581 -1331 
L 581 3500 
L 1159 3500 
L 1159 2969 
Q 1341 3281 1617 3432 
Q 1894 3584 2278 3584 
Q 2916 3584 3314 3078 
Q 3713 2572 3713 1747 
Q 3713 922 3314 415 
Q 2916 -91 2278 -91 
Q 1894 -91 1617 61 
Q 1341 213 1159 525 
z
M 3116 1747 
Q 3116 2381 2855 2742 
Q 2594 3103 2138 3103 
Q 1681 3103 1420 2742 
Q 1159 2381 1159 1747 
Q 1159 1113 1420 752 
Q 1681 391 2138 391 
Q 2594 391 2855 752 
Q 3116 1113 3116 1747 
z
" transform="scale(0.015625)"/>
    </defs>
    <use xlink:href="#STIXNonUnicode-Italic-e238" transform="translate(0 0.015625)"/>
    <use xlink:href="#DejaVuSans-3d" transform="translate(88.78241 0.015625)"/>
    <use xlink:href="#DejaVuSans-Oblique-3bb" transform="translate(192.053894 0.015625)"/>
    <use xlink:href="#DejaVuSans-Oblique-67" transform="translate(251.233582 -16.390625) scale(0.7)"/>
    <use xlink:href="#STIXNonUnicode-Italic-e238" transform="translate(298.40155 0.015625)"/>
    <use xlink:href="#DejaVuSans-67" transform="translate(368.658569 -16.390625) scale(0.7)"/>
    <use xlink:href="#DejaVuSans-6c" transform="translate(413.092163 -16.390625) scale(0.7)"/>
    <use xlink:href="#DejaVuSans-6f" transform="translate(432.540405 -16.390625) scale(0.7)"/>
    <use xlink:href="#DejaVuSans-62" transform="translate(475.367554 -16.390625) scale(0.7)"/>
    <use xlink:href="#DejaVuSans-61" transform="translate(519.801147 -16.390625) scale(0.7)"/>
    <use xlink:href="#DejaVuSans-6c" transform="translate(562.696655 -16.390625) scale(0.7)"/>
    <use xlink:href="#DejaVuSans-2b" transform="translate(604.361694 0.015625)"/>
    <use xlink:href="#DejaVuSans-Oblique-3bb" transform="translate(707.633179 0.015625)"/>
    <use xlink:href="#DejaVuSans-Oblique-65" transform="translate(766.812866 -16.390625) scale(0.7)"/>
    <use xlink:href="#STIXNonUnicode-Italic-e238" transform="translate(812.613647 0.015625)"/>
    <use xlink:href="#DejaVuSans-65" transform="translate(882.870667 -16.390625) scale(0.7)"/>
    <use xlink:href="#DejaVuSans-78" transform="translate(925.937073 -16.390625) scale(0.7)"/>
    <use xlink:href="#DejaVuSans-70" transform="translate(967.362854 -16.390625) scale(0.7)"/>
    <use xlink:href="#DejaVuSans-6c" transform="translate(1011.796448 -16.390625) scale(0.7)"/>
   </g>
  </g>
 </g>
</svg>
